PathFileType	4	(X/Y/Z)	/Users/itak/Documents/Research/Walk-IL/dataset/trc/00526_00183.trc
DataRate	CameraRate	NumFrames	NumMarkers	Units	OrigDataRate	OrigDataStartFrame	OrigNumFrames
100.000000	100.000000	4	53	mm	100.000000	58	466
Frame#	Time	RPSI			LPSI			L3			STRN			T10			C7			CLAV			RBAK			LBAK			LSHO			LUPA			LAEL			LAOL			LWTS			LFRA			LIFD			LHPS			LHTS			RSHO			RUPA			RAEL			RAOL			RWTS			RWPS			RFRA			RIFD			RHTS			RHPS			RBHD			LFHD			RFHD			LBHD			LHIP			RHIP			RASI			LASI			LKNE			LTHI			LANK			LTIP			LTOE			LMT1			LMT5			LHEE			RKNE			RTHI			RANK			RTIP			RTOE			RMT1			RMT5			RHEE			LWPS			
		X1	Y1	Z1	X2	Y2	Z2	X3	Y3	Z3	X4	Y4	Z4	X5	Y5	Z5	X6	Y6	Z6	X7	Y7	Z7	X8	Y8	Z8	X9	Y9	Z9	X10	Y10	Z10	X11	Y11	Z11	X12	Y12	Z12	X13	Y13	Z13	X14	Y14	Z14	X15	Y15	Z15	X16	Y16	Z16	X17	Y17	Z17	X18	Y18	Z18	X19	Y19	Z19	X20	Y20	Z20	X21	Y21	Z21	X22	Y22	Z22	X23	Y23	Z23	X24	Y24	Z24	X25	Y25	Z25	X26	Y26	Z26	X27	Y27	Z27	X28	Y28	Z28	X29	Y29	Z29	X30	Y30	Z30	X31	Y31	Z31	X32	Y32	Z32	X33	Y33	Z33	X34	Y34	Z34	X35	Y35	Z35	X36	Y36	Z36	X37	Y37	Z37	X38	Y38	Z38	X39	Y39	Z39	X40	Y40	Z40	X41	Y41	Z41	X42	Y42	Z42	X43	Y43	Z43	X44	Y44	Z44	X45	Y45	Z45	X46	Y46	Z46	X47	Y47	Z47	X48	Y48	Z48	X49	Y49	Z49	X50	Y50	Z50	X51	Y51	Z51	X52	Y52	Z52	X53	Y53	Z53	

59	0.58	-1201.819702148438	971.231201171875	-455.7756042480469	-1135.47802734375	969.5506591796875	-559.8348999023438	-1176.3740234375	1034.048706054688	-514.7014770507812	-976.3652954101562	1209.044921875	-412.6421508789062	-1190.549682617188	1139.960571289062	-517.274658203125	-1158.814331054688	1371.863403320312	-497.4125061035156	-1013.991394042969	1302.258056640625	-431.0636291503906	-1233.23974609375	1248.04150390625	-439.0444030761719	-1141.93798828125	1316.936401367188	-585.6388549804688	-1026.630859375	1366.499389648438	-613.0646362304688	-1007.132629394531	1240.300415039062	-672.4677124023438	-977.3384399414062	1030.765380859375	-688.1854858398438	-1070.865234375	1018.644409179688	-655.236328125	-897.7467041015625	848.9835205078125	-618.4522705078125	-957.4742431640625	947.6329345703125	-679.3299560546875	-889.0962524414062	693.52490234375	-595.2213134765625	-937.7308959960938	754.3342895507812	-657.3143310546875	-880.6775512695312	771.20068359375	-630.5582885742188	-1171.967529296875	1369.246826171875	-340.1211853027344	-1210.342895507812	1301.205322265625	-294.6638793945312	-1207.011474609375	1032.4423828125	-252.3965911865234	-1240.530517578125	1014.958923339844	-306.8512268066406	-1088.28857421875	837.1209716796875	-247.5523376464844	-1173.255493164062	810.0575561523438	-228.8572387695312	-1201.849731445312	978.4065551757812	-244.0678100585938	-1080.097045898438	676.4361572265625	-245.0166473388672	-1077.76220703125	743.54150390625	-220.7353057861328	-1148.395874023438	737.83984375	-221.5352935791016	-1166.71337890625	1531.6669921875	-413.3663330078125	-987.4921875	1596.945678710938	-476.6336975097656	-1051.524169921875	1591.819580078125	-366.463134765625	-1099.690795898438	1533.21533203125	-558.03955078125	-975.4328002929688	896.9058227539062	-613.45263671875	-1178.91015625	873.8439331054688	-296.6767272949219	-1057.078125	916.390869140625	-297.9203796386719	-934.636474609375	930.4773559570312	-506.6829528808594	-997.291015625	473.6587524414062	-577.6941528320312	-967.9371337890625	631.5824584960938	-588.6663208007812	-1100.695434570312	51.18976593017578	-617.489990234375	-1030.59716796875	323.7550048828125	-598.3165893554688	-955.2572631835938	38.6220817565918	-469.90673828125	-1039.671997070312	43.05521392822266	-479.6987915039062	-999.4729614257812	46.0362548828125	-573.0584716796875	-1170.977905273438	49.67540740966797	-584.4503784179688	-1181.85888671875	487.0107421875	-317.0263671875	-1162.205444335938	745.114013671875	-276.0001220703125	-1220.353881835938	48.25652694702148	-363.4299621582031	-1180.658935546875	343.4573974609375	-328.4690246582031	-1017.809204101562	44.11938858032227	-327.27392578125	-1065.959228515625	52.21113586425781	-385.8704528808594	-1121.403076171875	44.21083068847656	-305.9241333007812	-1248.17578125	39.94617080688477	-428.7706298828125	-963.7842407226562	807.23095703125	-671.484375	
60	0.59	-1201.903564453125	971.1618041992188	-455.8431701660156	-1135.477661132812	969.48193359375	-559.9368896484375	-1176.319213867188	1034.06396484375	-514.8641967773438	-976.4466552734375	1209.007080078125	-412.6435546875	-1190.523803710938	1139.985473632812	-517.3865966796875	-1158.740356445312	1371.878295898438	-497.5118408203125	-1014.012573242188	1302.236328125	-431.0787048339844	-1233.28564453125	1248.065185546875	-439.2464904785156	-1141.82177734375	1316.955688476562	-585.723876953125	-1026.51708984375	1366.475219726562	-613.0888061523438	-1007.009094238281	1240.29150390625	-672.46435546875	-977.25341796875	1030.759399414062	-688.1665649414062	-1070.73583984375	1018.573120117188	-655.2036743164062	-897.6593627929688	849.0029907226562	-618.28173828125	-957.3440551757812	947.611328125	-679.2656860351562	-888.8653564453125	693.5714111328125	-595.0097045898438	-937.599609375	754.3177490234375	-657.1779174804688	-880.5706176757812	771.2281494140625	-630.3985595703125	-1172.051391601562	1369.229614257812	-340.2191772460938	-1210.482055664062	1301.190185546875	-294.8344116210938	-1207.269897460938	1032.431762695312	-252.5698089599609	-1240.712280273438	1014.916870117188	-307.0761108398438	-1088.465698242188	837.1795654296875	-247.5353240966797	-1173.403930664062	810.051513671875	-228.9930877685547	-1202.103881835938	978.3898315429688	-244.2252502441406	-1080.146484375	676.5003051757812	-244.9709777832031	-1077.8876953125	743.6010131835938	-220.6857757568359	-1148.522705078125	737.863037109375	-221.5679168701172	-1166.351318359375	1531.875366210938	-413.3157043457031	-986.944091796875	1596.677124023438	-476.4473876953125	-1051.00830078125	1591.567993164062	-366.30859375	-1099.335815429688	1533.38525390625	-557.9539794921875	-975.3843383789062	896.8648681640625	-613.3895263671875	-1178.621215820312	873.7926025390625	-296.5244140625	-1057.205932617188	916.4481201171875	-297.9451293945312	-934.654052734375	930.4681396484375	-506.6320190429688	-997.1771240234375	473.6474609375	-577.5261840820312	-967.684814453125	631.5709838867188	-588.4168090820312	-1100.711303710938	51.21701812744141	-617.4710693359375	-1030.533081054688	323.7657470703125	-598.2007446289062	-955.2525634765625	38.61903762817383	-469.8993225097656	-1039.674560546875	43.04071426391602	-479.6760864257812	-999.4759521484375	46.04438781738281	-573.0440063476562	-1170.974975585938	49.66569137573242	-584.4431762695312	-1181.791870117188	487.0108642578125	-317.0409545898438	-1162.269653320312	745.128173828125	-276.0065002441406	-1220.33984375	48.24940490722656	-363.4417724609375	-1180.574462890625	343.4425659179688	-328.4990234375	-1017.811218261719	44.12007904052734	-327.27197265625	-1065.958129882812	52.20534515380859	-385.8692016601562	-1121.401977539062	44.21081161499023	-305.9237670898438	-1248.174072265625	39.94149780273438	-428.7715454101562	-963.6943359375	807.2562866210938	-671.4129638671875	
61	0.6	-1201.978149414062	971.1002197265625	-455.9120483398438	-1135.482177734375	969.4155883789062	-560.0355224609375	-1176.261352539062	1034.08056640625	-515.0262451171875	-976.5278930664062	1208.966674804688	-412.6482238769531	-1190.48193359375	1140.011474609375	-517.5010986328125	-1158.660400390625	1371.893798828125	-497.6083068847656	-1014.031188964844	1302.210815429688	-431.0949096679688	-1233.328002929688	1248.091186523438	-439.4468994140625	-1141.7041015625	1316.978515625	-585.8021240234375	-1026.382934570312	1366.455322265625	-613.10693359375	-1006.883605957031	1240.28466796875	-672.4564819335938	-977.1570434570312	1030.756103515625	-688.143798828125	-1070.594482421875	1018.505493164062	-655.1588745117188	-897.5973510742188	849.0123901367188	-618.10888671875	-957.2135009765625	947.5926513671875	-679.2025756835938	-888.768310546875	693.5902099609375	-594.8234252929688	-937.5062866210938	754.2985229492188	-657.0527954101562	-880.4931640625	771.2324829101562	-630.2105102539062	-1172.132080078125	1369.214233398438	-340.313232421875	-1210.62158203125	1301.17578125	-295.0054016113281	-1207.55322265625	1032.422973632812	-252.7455749511719	-1240.905639648438	1014.887084960938	-307.3130493164062	-1088.674560546875	837.2348022460938	-247.5085296630859	-1173.590454101562	810.0415649414062	-229.1495971679688	-1202.380615234375	978.370361328125	-244.389404296875	-1080.23486328125	676.5580444335938	-244.9402465820312	-1078.055419921875	743.6505126953125	-220.6319885253906	-1148.69189453125	737.8818359375	-221.6204833984375	-1165.9912109375	1532.077392578125	-413.2593383789062	-986.412353515625	1596.425659179688	-476.2744140625	-1050.50439453125	1591.33203125	-366.1580200195312	-1098.969848632812	1533.544067382812	-557.8635864257812	-975.3453979492188	896.8231201171875	-613.3347778320312	-1178.21142578125	873.6641235351562	-296.3062744140625	-1057.329345703125	916.4994506835938	-297.9726867675781	-934.6738891601562	930.4521484375	-506.5857238769531	-997.0810546875	473.6254577636719	-577.3903198242188	-967.4551391601562	631.5616455078125	-588.1852416992188	-1100.726928710938	51.24635696411133	-617.4541015625	-1030.46826171875	323.7726440429688	-598.0792236328125	-955.2496337890625	38.61708831787109	-469.8916015625	-1039.675659179688	43.02727508544922	-479.6539611816406	-999.4793701171875	46.05233764648438	-573.0291748046875	-1170.974609375	49.65621566772461	-584.4337768554688	-1181.73583984375	487.0093994140625	-317.0599975585938	-1162.330078125	745.138671875	-276.0273132324219	-1220.329711914062	48.24697113037109	-363.4516296386719	-1180.497802734375	343.4301452636719	-328.5263671875	-1017.813842773438	44.12174224853516	-327.2696533203125	-1065.95849609375	52.20048522949219	-385.8670349121094	-1121.402099609375	44.2115592956543	-305.9232482910156	-1248.172729492188	39.9366340637207	-428.771728515625	-963.6173095703125	807.25341796875	-671.3306274414062	
62	0.61	-1202.039794921875	971.0496826171875	-455.9873046875	-1135.488037109375	969.3529663085938	-560.130126953125	-1176.201171875	1034.09814453125	-515.183349609375	-976.6064453125	1208.924072265625	-412.656982421875	-1190.4189453125	1140.037841796875	-517.6212768554688	-1158.575927734375	1371.908813476562	-497.7002563476562	-1014.046020507812	1302.181640625	-431.1125183105469	-1233.362182617188	1248.118774414062	-439.6439208984375	-1141.586303710938	1317.003540039062	-585.8720703125	-1026.227416992188	1366.439697265625	-613.120361328125	-1006.753723144531	1240.280517578125	-672.4457397460938	-977.0478515625	1030.753540039062	-688.1175537109375	-1070.444458007812	1018.44775390625	-655.10595703125	-897.5567626953125	849.0114135742188	-617.9419555664062	-957.0848388671875	947.5753784179688	-679.14208984375	-888.7948608398438	693.5830688476562	-594.6597290039062	-937.4423828125	754.277587890625	-656.9391479492188	-880.4370727539062	771.2128295898438	-629.9937133789062	-1172.208129882812	1369.201538085938	-340.4052124023438	-1210.757568359375	1301.162841796875	-295.1773376464844	-1207.85400390625	1032.416381835938	-252.9204254150391	-1241.105102539062	1014.870910644531	-307.5560913085938	-1088.9091796875	837.2824096679688	-247.477294921875	-1173.814453125	810.0284423828125	-229.3211975097656	-1202.672119140625	978.3487548828125	-244.5569763183594	-1080.366333007812	676.6058959960938	-244.9293212890625	-1078.265502929688	743.6871337890625	-220.5770568847656	-1148.901245117188	737.89404296875	-221.6984405517578	-1165.636596679688	1532.270141601562	-413.1968688964844	-985.8960571289062	1596.19140625	-476.1123352050781	-1050.014526367188	1591.1171875	-366.0114135742188	-1098.588256835938	1533.695434570312	-557.7716674804688	-975.3143310546875	896.781494140625	-613.287353515625	-1177.696655273438	873.44580078125	-296.0322570800781	-1057.446411132812	916.5435791015625	-298.0044555664062	-934.6956176757812	930.430908203125	-506.5445556640625	-997.00390625	473.5979614257812	-577.2823486328125	-967.2686157226562	631.5543212890625	-587.9925537109375	-1100.74267578125	51.27654266357422	-617.4390869140625	-1030.401123046875	323.7744750976562	-597.9594116210938	-955.2488403320312	38.61662673950195	-469.883544921875	-1039.676635742188	43.01519012451172	-479.6327514648438	-999.4828491210938	46.06078720092773	-573.0137329101562	-1170.977783203125	49.64847183227539	-584.4228515625	-1181.692260742188	487.0072021484375	-317.0826721191406	-1162.388427734375	745.1474609375	-276.0669250488281	-1220.322875976562	48.24879455566406	-363.4599914550781	-1180.430419921875	343.4186096191406	-328.5518493652344	-1017.817016601562	44.12472534179688	-327.2673034667969	-1065.961181640625	52.1965217590332	-385.8644104003906	-1121.403198242188	44.21376800537109	-305.9225463867188	-1248.171508789062	39.93074798583984	-428.7718811035156	-963.5526123046875	807.2234497070312	-671.2353515625	
